Coordinates
version=1
nRows=43
nColumns=12
inDegrees=yes

Units are S.I. units (second, meters, Newtons, ...)
Angles are in degrees

endheader
time	SC_y	SC_z	SC_x	AC_y	AC_z	AC_x	GH_y	GH_z	GH_yy	EL_x	PS_y
       0.0               -58.4          24.26          41.04          49.88         -5.748          3.032         -131.0         -14.57          169.8          7.685          37.79
   0.02463              -58.39          24.26          41.04          49.88         -5.748           3.03         -131.0         -14.57          169.7          7.692          37.79
   0.04927              -58.39          24.25          41.04          49.88         -5.748          3.027         -131.0         -14.57          169.7          7.699          37.79
    0.0739              -58.38          24.25          41.04          49.87         -5.749          3.024         -130.9         -14.57          169.7          7.706          37.79
   0.09853              -58.37          24.24          41.03          49.87         -5.749           3.02         -130.9         -14.57          169.7          7.714          37.79
    0.1232              -58.36          24.24          41.03          49.87         -5.749          3.017         -130.9         -14.57          169.6          7.723          37.79
    0.1478              -58.36          24.23          41.03          49.86          -5.75          3.013         -130.9         -14.57          169.6          7.732          37.79
    0.1724              -58.35          24.22          41.03          49.86          -5.75          3.009         -130.9         -14.57          169.5          7.741          37.78
    0.1971              -58.34          24.22          41.03          49.86         -5.751          3.005         -130.8         -14.57          169.5          7.752          37.78
    0.2217              -58.33          24.21          41.03          49.86         -5.751            3.0         -130.8         -14.57          169.5          7.763          37.78
    0.2463              -58.32           24.2          41.02          49.85         -5.752          2.995         -130.8         -14.57          169.4          7.775          37.78
     0.271              -58.31          24.19          41.02          49.85         -5.752           2.99         -130.8         -14.57          169.4          7.788          37.78
    0.2956              -58.29          24.18          41.02          49.84         -5.753          2.984         -130.7         -14.57          169.3          7.802          37.77
    0.3202              -58.28          24.18          41.02          49.84         -5.754          2.978         -130.7         -14.57          169.2          7.817          37.77
    0.3449              -58.27          24.16          41.02          49.83         -5.755          2.972         -130.7         -14.57          169.2          7.833          37.77
    0.3695              -58.25          24.15          41.01          49.83         -5.755          2.964         -130.6         -14.57          169.1          7.851          37.77
    0.3941              -58.23          24.14          41.01          49.82         -5.756          2.957         -130.6         -14.57          169.0           7.87          37.76
    0.4188              -58.22          24.13          41.01          49.82         -5.757          2.948         -130.5         -14.57          169.0          7.891          37.76
    0.4434               -58.2          24.11           41.0          49.81         -5.758          2.939         -130.5         -14.58          168.9          7.913          37.76
     0.468              -58.17           24.1           41.0           49.8          -5.76          2.928         -130.4         -14.58          168.8          7.938          37.75
    0.4927              -58.15          24.08           41.0          49.79         -5.761          2.917         -130.4         -14.58          168.7          7.966          37.75
    0.5173              -58.12          24.06          40.99          49.78         -5.762          2.905         -130.3         -14.58          168.5          7.996          37.74
    0.5419              -58.09          24.04          40.99          49.77         -5.764          2.891         -130.2         -14.58          168.4          8.029          37.74
    0.5666              -58.06          24.02          40.98          49.76         -5.766          2.876         -130.2         -14.58          168.3          8.066          37.73
    0.5912              -58.02          23.99          40.97          49.75         -5.768          2.859         -130.1         -14.58          168.1          8.107          37.73
    0.6158              -57.98          23.96          40.97          49.74          -5.77          2.841         -130.0         -14.58          167.9          8.153          37.72
    0.6405              -57.94          23.93          40.96          49.72         -5.772           2.82         -129.8         -14.58          167.7          8.204          37.71
    0.6651              -57.89          23.89          40.95           49.7         -5.775          2.796         -129.7         -14.59          167.5          8.262           37.7
    0.6897              -57.83          23.85          40.94          49.68         -5.778          2.769         -129.6         -14.59          167.2          8.327          37.69
    0.7144              -57.76           23.8          40.93          49.66         -5.782          2.739         -129.4         -14.59          166.9          8.401          37.68
     0.739              -57.69          23.75          40.92          49.63         -5.786          2.704         -129.2         -14.59          166.6          8.485          37.67
    0.7636               -57.6          23.69           40.9           49.6          -5.79          2.665         -129.0          -14.6          166.2          8.582          37.65
    0.7883               -57.5          23.61          40.88          49.57         -5.796          2.619         -128.8          -14.6          165.8          8.694          37.63
    0.8129              -57.39          23.53          40.86          49.53         -5.802          2.566         -128.5          -14.6          165.2          8.824          37.61
    0.8375              -57.25          23.43          40.84          49.48         -5.809          2.503         -128.2         -14.61          164.6          8.976          37.59
    0.8622              -57.09          23.32          40.81          49.43         -5.818           2.43         -127.8         -14.61          163.9          9.156          37.56
    0.8868               -56.9          23.18          40.78          49.36         -5.828          2.343         -127.3         -14.62          163.1          9.369          37.53
    0.9114              -56.68          23.02          40.74          49.29          -5.84          2.238         -126.7         -14.63          162.1          9.624          37.49
    0.9361               -56.4          22.82           40.7          49.19         -5.855          2.111         -126.0         -14.64          160.8          9.933          37.44
    0.9607              -56.07          22.58          40.64          49.08         -5.873          1.957         -125.2         -14.65          159.3          10.31          37.38
    0.9853              -55.66          22.28          40.57          48.93         -5.895          1.766         -124.2         -14.66          157.5          10.78           37.3
      1.01              -55.14          21.91          40.48          48.76         -5.923          1.528         -122.9         -14.68          155.2          11.36          37.21
     1.035              -54.49          21.44          40.37          48.53         -5.957          1.228         -121.3          -14.7          152.3          12.09           37.1
